<svg id="visual" viewBox="0 0 1920 1080" width="1920" height="1080" xmlns="http://www.w3.org/2000/svg" xmlns:xlink="http://www.w3.org/1999/xlink" version="1.1"><rect x="0" y="0" width="1920" height="1080" fill="#ffffff"></rect><defs><linearGradient id="grad1_0" x1="43.8%" y1="0%" x2="100%" y2="100%"><stop offset="14.444444444444446%" stop-color="#6600ff" stop-opacity="1"></stop><stop offset="85.55555555555554%" stop-color="#6600ff" stop-opacity="1"></stop></linearGradient></defs><defs><linearGradient id="grad1_1" x1="43.8%" y1="0%" x2="100%" y2="100%"><stop offset="14.444444444444446%" stop-color="#6600ff" stop-opacity="1"></stop><stop offset="85.55555555555554%" stop-color="#883dff" stop-opacity="1"></stop></linearGradient></defs><defs><linearGradient id="grad1_2" x1="43.8%" y1="0%" x2="100%" y2="100%"><stop offset="14.444444444444446%" stop-color="#a261ff" stop-opacity="1"></stop><stop offset="85.55555555555554%" stop-color="#883dff" stop-opacity="1"></stop></linearGradient></defs><defs><linearGradient id="grad1_3" x1="43.8%" y1="0%" x2="100%" y2="100%"><stop offset="14.444444444444446%" stop-color="#a261ff" stop-opacity="1"></stop><stop offset="85.55555555555554%" stop-color="#b981ff" stop-opacity="1"></stop></linearGradient></defs><defs><linearGradient id="grad1_4" x1="43.8%" y1="0%" x2="100%" y2="100%"><stop offset="14.444444444444446%" stop-color="#cda1ff" stop-opacity="1"></stop><stop offset="85.55555555555554%" stop-color="#b981ff" stop-opacity="1"></stop></linearGradient></defs><defs><linearGradient id="grad1_5" x1="43.8%" y1="0%" x2="100%" y2="100%"><stop offset="14.444444444444446%" stop-color="#cda1ff" stop-opacity="1"></stop><stop offset="85.55555555555554%" stop-color="#dfc0ff" stop-opacity="1"></stop></linearGradient></defs><defs><linearGradient id="grad1_6" x1="43.8%" y1="0%" x2="100%" y2="100%"><stop offset="14.444444444444446%" stop-color="#f0dfff" stop-opacity="1"></stop><stop offset="85.55555555555554%" stop-color="#dfc0ff" stop-opacity="1"></stop></linearGradient></defs><defs><linearGradient id="grad1_7" x1="43.8%" y1="0%" x2="100%" y2="100%"><stop offset="14.444444444444446%" stop-color="#f0dfff" stop-opacity="1"></stop><stop offset="85.55555555555554%" stop-color="#ffffff" stop-opacity="1"></stop></linearGradient></defs><defs><linearGradient id="grad2_0" x1="0%" y1="0%" x2="56.3%" y2="100%"><stop offset="14.444444444444446%" stop-color="#6600ff" stop-opacity="1"></stop><stop offset="85.55555555555554%" stop-color="#6600ff" stop-opacity="1"></stop></linearGradient></defs><defs><linearGradient id="grad2_1" x1="0%" y1="0%" x2="56.3%" y2="100%"><stop offset="14.444444444444446%" stop-color="#883dff" stop-opacity="1"></stop><stop offset="85.55555555555554%" stop-color="#6600ff" stop-opacity="1"></stop></linearGradient></defs><defs><linearGradient id="grad2_2" x1="0%" y1="0%" x2="56.3%" y2="100%"><stop offset="14.444444444444446%" stop-color="#883dff" stop-opacity="1"></stop><stop offset="85.55555555555554%" stop-color="#a261ff" stop-opacity="1"></stop></linearGradient></defs><defs><linearGradient id="grad2_3" x1="0%" y1="0%" x2="56.3%" y2="100%"><stop offset="14.444444444444446%" stop-color="#b981ff" stop-opacity="1"></stop><stop offset="85.55555555555554%" stop-color="#a261ff" stop-opacity="1"></stop></linearGradient></defs><defs><linearGradient id="grad2_4" x1="0%" y1="0%" x2="56.3%" y2="100%"><stop offset="14.444444444444446%" stop-color="#b981ff" stop-opacity="1"></stop><stop offset="85.55555555555554%" stop-color="#cda1ff" stop-opacity="1"></stop></linearGradient></defs><defs><linearGradient id="grad2_5" x1="0%" y1="0%" x2="56.3%" y2="100%"><stop offset="14.444444444444446%" stop-color="#dfc0ff" stop-opacity="1"></stop><stop offset="85.55555555555554%" stop-color="#cda1ff" stop-opacity="1"></stop></linearGradient></defs><defs><linearGradient id="grad2_6" x1="0%" y1="0%" x2="56.3%" y2="100%"><stop offset="14.444444444444446%" stop-color="#dfc0ff" stop-opacity="1"></stop><stop offset="85.55555555555554%" stop-color="#f0dfff" stop-opacity="1"></stop></linearGradient></defs><defs><linearGradient id="grad2_7" x1="0%" y1="0%" x2="56.3%" y2="100%"><stop offset="14.444444444444446%" stop-color="#ffffff" stop-opacity="1"></stop><stop offset="85.55555555555554%" stop-color="#f0dfff" stop-opacity="1"></stop></linearGradient></defs><g transform="translate(1920, 0)"><path d="M0 1080C-138.9 1057.8 -277.8 1035.5 -408.7 986.7C-539.6 937.9 -662.6 862.5 -763.7 763.7C-864.8 664.8 -944.1 542.6 -993.2 411.4C-1042.3 280.2 -1061.1 140.1 -1080 0L0 0Z" fill="#f8efff"></path><path d="M0 945C-121.5 925.5 -243.1 906.1 -357.6 863.4C-472.2 820.7 -579.7 754.7 -668.2 668.2C-756.7 581.7 -826.1 474.7 -869 360C-912 245.2 -928.5 122.6 -945 0L0 0Z" fill="#e8d0ff"></path><path d="M0 810C-104.2 793.3 -208.3 776.6 -306.5 740C-404.7 703.4 -496.9 646.9 -572.8 572.8C-648.6 498.6 -708.1 406.9 -744.9 308.5C-781.7 210.1 -795.8 105.1 -810 0L0 0Z" fill="#d7b0ff"></path><path d="M0 675C-86.8 661.1 -173.6 647.2 -255.4 616.7C-337.3 586.2 -414.1 539.1 -477.3 477.3C-540.5 415.5 -590.1 339.1 -620.7 257.1C-651.4 175.1 -663.2 87.6 -675 0L0 0Z" fill="#c391ff"></path><path d="M0 540C-69.4 528.9 -138.9 517.8 -204.4 493.4C-269.8 468.9 -331.3 431.3 -381.8 381.8C-432.4 332.4 -472 271.3 -496.6 205.7C-521.1 140.1 -530.6 70 -540 0L0 0Z" fill="#ae71ff"></path><path d="M0 405C-52.1 396.7 -104.2 388.3 -153.3 370C-202.4 351.7 -248.5 323.4 -286.4 286.4C-324.3 249.3 -354 203.5 -372.4 154.3C-390.8 105.1 -397.9 52.5 -405 0L0 0Z" fill="#9650ff"></path><path d="M0 270C-34.7 264.4 -69.4 258.9 -102.2 246.7C-134.9 234.5 -165.6 215.6 -190.9 190.9C-216.2 166.2 -236 135.6 -248.3 102.8C-260.6 70 -265.3 35 -270 0L0 0Z" fill="#7827ff"></path><path d="M0 135C-17.4 132.2 -34.7 129.4 -51.1 123.3C-67.5 117.2 -82.8 107.8 -95.5 95.5C-108.1 83.1 -118 67.8 -124.1 51.4C-130.3 35 -132.6 17.5 -135 0L0 0Z" fill="#6600ff"></path></g><g transform="translate(0, 1080)"><path d="M0 -1080C121.5 -1016.5 242.9 -953 376.9 -910C511 -867 657.6 -844.6 763.7 -763.7C869.7 -682.8 935.2 -543.4 981.2 -406.4C1027.1 -269.4 1053.6 -134.7 1080 0L0 0Z" fill="#f8efff"></path><path d="M0 -945C106.3 -889.4 212.5 -833.9 329.8 -796.3C447.1 -758.7 575.4 -739 668.2 -668.2C761 -597.4 818.3 -475.5 858.5 -355.6C898.7 -235.7 921.9 -117.9 945 0L0 0Z" fill="#e8d0ff"></path><path d="M0 -810C91.1 -762.4 182.2 -714.8 282.7 -682.5C383.2 -650.3 493.2 -633.4 572.8 -572.8C652.3 -512.1 701.4 -407.6 735.9 -304.8C770.3 -202 790.2 -101 810 0L0 0Z" fill="#d7b0ff"></path><path d="M0 -675C75.9 -635.3 151.8 -595.6 235.6 -568.8C319.4 -541.9 411 -527.9 477.3 -477.3C543.6 -426.7 584.5 -339.6 613.2 -254C641.9 -168.4 658.5 -84.2 675 0L0 0Z" fill="#c391ff"></path><path d="M0 -540C60.7 -508.3 121.5 -476.5 188.5 -455C255.5 -433.5 328.8 -422.3 381.8 -381.8C434.9 -341.4 467.6 -271.7 490.6 -203.2C513.6 -134.7 526.8 -67.3 540 0L0 0Z" fill="#ae71ff"></path><path d="M0 -405C45.5 -381.2 91.1 -357.4 141.4 -341.3C191.6 -325.1 246.6 -316.7 286.4 -286.4C326.1 -256 350.7 -203.8 367.9 -152.4C385.2 -101 395.1 -50.5 405 0L0 0Z" fill="#9650ff"></path><path d="M0 -270C30.4 -254.1 60.7 -238.3 94.2 -227.5C127.7 -216.8 164.4 -211.1 190.9 -190.9C217.4 -170.7 233.8 -135.9 245.3 -101.6C256.8 -67.3 263.4 -33.7 270 0L0 0Z" fill="#7827ff"></path><path d="M0 -135C15.2 -127.1 30.4 -119.1 47.1 -113.8C63.9 -108.4 82.2 -105.6 95.5 -95.5C108.7 -85.3 116.9 -67.9 122.6 -50.8C128.4 -33.7 131.7 -16.8 135 0L0 0Z" fill="#6600ff"></path></g></svg>