<svg id="visual" viewBox="0 0 1920 256" width="1920" height="256" xmlns="http://www.w3.org/2000/svg" xmlns:xlink="http://www.w3.org/1999/xlink" version="1.1"><path d="M0 97L24.7 109.8C49.3 122.7 98.7 148.3 147.8 145.7C197 143 246 112 295.2 107.7C344.3 103.3 393.7 125.7 443 146C492.3 166.3 541.7 184.7 590.8 185C640 185.3 689 167.7 738.2 143.3C787.3 119 836.7 88 886 77.7C935.3 67.3 984.7 77.7 1034 97.7C1083.3 117.7 1132.7 147.3 1181.8 142.3C1231 137.3 1280 97.7 1329.2 82.3C1378.3 67 1427.7 76 1477 89.8C1526.3 103.7 1575.7 122.3 1624.8 128.8C1674 135.3 1723 129.7 1772.2 119.5C1821.3 109.3 1870.7 94.7 1895.3 87.3L1920 80L1920 257L1895.3 257C1870.7 257 1821.3 257 1772.2 257C1723 257 1674 257 1624.8 257C1575.7 257 1526.3 257 1477 257C1427.7 257 1378.3 257 1329.2 257C1280 257 1231 257 1181.8 257C1132.7 257 1083.3 257 1034 257C984.7 257 935.3 257 886 257C836.7 257 787.3 257 738.2 257C689 257 640 257 590.8 257C541.7 257 492.3 257 443 257C393.7 257 344.3 257 295.2 257C246 257 197 257 147.8 257C98.7 257 49.3 257 24.7 257L0 257Z" fill="#715DF2" stroke-linecap="round" stroke-linejoin="miter"></path></svg>